HIERARCHY
ROOT hip
{
	OFFSET 0.000000 0.000000 0.000000 
	CHANNELS 6 Xposition Yposition Zposition Xrotation Zrotation Yrotation
	JOINT abdomen
	{
		OFFSET 0.000000 3.402643 0.000000 
		CHANNELS 3 Xrotation Zrotation Yrotation
		JOINT chest
		{
			OFFSET 0.000000 8.438565 -0.680529 
			CHANNELS 3 Xrotation Zrotation Yrotation
			JOINT neck
			{
				OFFSET 0.000000 10.207942 -0.272212 
				CHANNELS 3 Xrotation Zrotation Yrotation
				JOINT head
				{
					OFFSET 0.000000 3.130431 0.000000 
					CHANNELS 3 Xrotation Zrotation Yrotation
					End Site
					{
						OFFSET 0.000000 3.130435 0.000000 
					}
				}
			}
			JOINT lCollar
			{
				OFFSET 3.470700 6.669187 -0.816635 
				CHANNELS 3 Yrotation Zrotation Xrotation
				JOINT lShldr
				{
					OFFSET 3.198488 0.000000 0.000000 
					CHANNELS 3 Zrotation Yrotation Xrotation
					JOINT lForeArm
					{
						OFFSET 10.139888 0.000000 0.000000 
						CHANNELS 3 Yrotation Zrotation Xrotation
						JOINT lHand
						{
							OFFSET 8.370511 0.000000 0.000000 
							CHANNELS 3 Zrotation Yrotation Xrotation
							End Site
							{
								OFFSET 4.083176 0.000000 0.000000 
							}
						}
					}
				}
			}
			JOINT rCollar
			{
				OFFSET -3.470700 6.669187 -0.816635 
				CHANNELS 3 Yrotation Zrotation Xrotation
				JOINT rShldr
				{
					OFFSET -3.198488 0.000000 0.000000 
					CHANNELS 3 Zrotation Yrotation Xrotation
					JOINT rForeArm
					{
						OFFSET -10.139888 0.000000 0.000000 
						CHANNELS 3 Yrotation Zrotation Xrotation
						JOINT rHand
						{
							OFFSET -8.370511 0.000000 0.000000 
							CHANNELS 3 Zrotation Yrotation Xrotation
							End Site
							{
								OFFSET -4.083176 0.000000 0.000000 
							}
						}
					}
				}
			}
		}
	}
	JOINT lThigh
	{
		OFFSET 5.308129 -1.633274 1.361059 
		CHANNELS 3 Xrotation Zrotation Yrotation
		JOINT lShin
		{
			OFFSET -2.041588 -20.007561 0.000000 
			CHANNELS 3 Xrotation Zrotation Yrotation
			JOINT lFoot
			{
				OFFSET 0.000000 -19.190928 -1.224953 
				CHANNELS 3 Xrotation Yrotation Zrotation
				End Site
				{
					OFFSET 0.000000 -2.449906 4.627600 
				}
			}
		}
	}
	JOINT rThigh
	{
		OFFSET -5.308129 -1.633274 1.361059 
		CHANNELS 3 Xrotation Zrotation Yrotation
		JOINT rShin
		{
			OFFSET 2.041588 -20.007561 0.000000 
			CHANNELS 3 Xrotation Zrotation Yrotation
			JOINT rFoot
			{
				OFFSET 0.000000 -19.190928 -1.224953 
				CHANNELS 3 Xrotation Yrotation Zrotation
				End Site
				{
					OFFSET 0.000000 -2.449906 4.627600 
				}
			}
		}
	}
}
MOTION
Frames: 6
Frame Time: 0.033333
-4.580638 45.312336 -12.879309 1.027014 11.648570 92.855515 38.764130 -1.006375 -3.024469 -20.839844 0.000000 0.000000 15.380715 15.272689 7.736158 8.584577 -3.811294 0.287245 -4.754609 -0.109183 -0.002653 -40.139141 4.447694 -29.262121 -25.967989 8.653406 -1.349132 7.957475 -21.903994 14.123872 4.754609 0.109183 -0.002672 46.404041 -18.496511 -26.536642 56.034515 -6.062881 -7.490648 -5.299085 2.968544 -5.026130 23.367052 6.564340 -63.121807 -4.309439 25.759033 43.320156 13.363681 39.654213 -10.094993 2.714932 -10.847048 0.566369 18.664801 -7.768259 -2.414825 -3.156199 -17.566107 8.831749 
-4.660823 45.393574 -12.778494 1.435067 11.500394 92.981583 39.644852 -1.530969 -3.332940 -20.839844 0.000000 0.000000 14.134366 15.816415 7.624670 8.584577 -3.811294 0.287245 -4.754609 -0.109183 -0.002653 -39.811779 6.340714 -28.576376 -31.074629 5.989635 0.387098 7.829625 -22.906717 13.919020 4.754609 0.109183 -0.002672 50.570995 -20.995714 -26.587332 67.233139 -6.608933 -3.590634 -2.625952 4.043334 -1.093277 22.596212 6.487874 -63.315628 -2.676659 21.440096 -75.753792 -2.115141 159.145279 -10.319622 2.607686 -11.453979 0.021606 18.459808 -7.393631 -2.256226 -3.193161 -16.932907 8.305783 
-4.717585 45.498249 -12.622900 2.408391 11.103709 93.414017 40.265739 -3.016897 -4.169334 -20.839844 0.000000 0.000000 13.090755 16.495855 7.385323 8.584577 -3.811294 0.287245 -4.754609 -0.109183 -0.002653 -39.227642 7.562075 -24.892094 -34.432819 3.533885 4.261651 8.160949 -23.874712 11.738403 4.754609 0.109183 -0.002672 54.916561 -23.098711 -25.593052 75.022644 -5.110939 0.403064 0.721656 5.320470 2.922590 21.434549 5.280616 -60.165756 -4.985184 21.624409 -18.737528 -64.264969 107.447479 59.745712 2.431205 -12.438005 -0.491060 18.217382 -7.307193 -1.963479 -3.222837 -16.733084 8.223362 
-4.723322 45.659153 -12.465216 3.654880 10.486917 94.143982 40.298138 -4.730371 -5.242432 -20.839844 0.000000 0.000000 12.575998 16.864706 6.977023 8.584577 -3.811294 0.287245 -4.754609 -0.109183 -0.002653 -39.814053 7.691321 -21.409054 -36.022617 0.761204 8.875185 8.176193 -25.426956 12.189527 4.754609 0.109183 -0.002672 58.824730 -25.262438 -23.557528 78.917336 -1.547334 3.679487 3.645236 6.460594 6.353281 19.795057 2.723823 -50.117416 -4.394060 20.831470 -19.604467 74.679749 72.968346 -76.298019 2.762755 -13.518291 -0.787905 16.894005 -7.353756 -1.709682 -2.637023 -17.215826 9.095060 
-4.683223 45.837776 -12.389608 4.538013 9.725861 95.221817 39.629101 -5.865412 -6.036143 -20.839844 0.000000 0.000000 12.087725 17.091532 6.491566 8.584577 -3.811294 0.287245 -4.754609 -0.109183 -0.002653 -42.741806 6.920807 -18.211349 -35.808731 -1.344666 14.052156 8.806991 -26.916225 14.896358 4.754609 0.109183 -0.002672 62.163170 -26.945704 -20.727602 78.246010 3.189332 6.483161 5.314838 7.344264 9.053021 18.144758 0.712661 -37.797356 -5.449750 21.202566 -12.735692 33.501621 58.647858 -43.060932 3.740201 -14.129130 -0.854464 14.407092 -7.578809 -1.806366 -1.327401 -18.219566 10.321274 
-4.586895 45.925789 -12.443548 4.809373 9.293910 96.560562 38.990704 -6.237597 -6.289550 -20.839844 0.000000 0.000000 10.741082 17.559080 5.798450 8.584577 -3.811294 0.287245 -4.754609 -0.109183 -0.002653 -48.425709 5.264542 -15.892861 -33.490479 -1.985713 18.577011 8.646847 -27.830173 19.674946 4.754609 0.109183 -0.002672 65.754227 -26.736639 -17.670696 72.338257 7.156018 9.862386 6.105016 8.036636 11.515968 15.234141 -1.445537 -32.556293 -0.190323 22.488483 -9.158112 21.886967 48.534229 -34.931431 5.038092 -14.204918 -1.011532 12.321590 -7.775799 -2.332131 -0.274155 -19.015001 11.286352 
